<svg width="41" height="44" viewBox="0 0 41 44" fill="none" xmlns="http://www.w3.org/2000/svg">
<path fill-rule="evenodd" clip-rule="evenodd" d="M24.3215 25.9906L35.3036 22.0876L5.7876 5.86015L14.3925 38.4252L20.8364 28.7136L28.5513 38.5882L32.0365 35.8653L24.3215 25.9906Z" fill="white"/>
<path d="M4.24854 3.89042C5.03656 3.27474 6.11537 3.18799 6.9917 3.66972L36.5083 19.8973C37.3708 20.3716 37.8746 21.3077 37.7954 22.2889C37.7162 23.27 37.0686 24.1134 36.1411 24.4432L28.4263 27.1844L34.0063 34.326C34.8564 35.414 34.6637 36.9857 33.5757 37.8357L30.0903 40.5584C29.0024 41.4082 27.4316 41.2154 26.5815 40.1277L21.0015 32.9851L16.4761 39.8074C15.9318 40.6277 14.9562 41.0519 13.9849 40.8914C13.0137 40.7309 12.2267 40.0159 11.9751 39.0642L3.37061 6.49882C3.11513 5.53197 3.46053 4.50613 4.24854 3.89042Z" stroke="white" stroke-opacity="0.8" stroke-width="5" stroke-linejoin="round"/>
<path fill-rule="evenodd" clip-rule="evenodd" d="M24.3215 25.9906L35.3036 22.0876L5.7876 5.86015L14.3925 38.4252L20.8364 28.7136L28.5513 38.5882L32.0365 35.8653L24.3215 25.9906Z" fill="white"/>
<path d="M5.06006 4.9285C5.43254 4.63763 5.94274 4.59642 6.35693 4.82401L35.8726 21.0516C36.2803 21.2757 36.5192 21.7186 36.4819 22.1824C36.4445 22.6462 36.1381 23.045 35.6997 23.201L26.2622 26.5545L32.9683 35.1375C33.37 35.6519 33.2785 36.3948 32.7642 36.7967L29.2788 39.5193C28.7644 39.9212 28.0215 39.8305 27.6196 39.3162L20.9136 30.7332L15.3774 39.0789C15.1201 39.4666 14.6589 39.6675 14.1997 39.5916C13.7406 39.5157 13.3684 39.1772 13.2495 38.7273L4.64502 6.1619C4.52431 5.70484 4.68753 5.21956 5.06006 4.9285Z" stroke="black" stroke-opacity="0.8" stroke-width="2.36382" stroke-linejoin="round"/>
</svg>
